<?xml version="1.0" standalone="no"?>
<!DOCTYPE svg PUBLIC "-//W3C//DTD SVG 20010904//EN"
 "http://www.w3.org/TR/2001/REC-SVG-20010904/DTD/svg10.dtd">
<svg version="1.0" xmlns="http://www.w3.org/2000/svg"
 width="3840.000000pt" height="3840.000000pt" viewBox="0 0 3840.000000 3840.000000"
 preserveAspectRatio="xMidYMid meet">
<metadata>
Created by potrace 1.14, written by Peter Selinger 2001-2017
</metadata>
<g transform="translate(0.000000,3840.000000) scale(0.100000,-0.100000)"
fill="#000000" stroke="none">
<path d="M31810 33349 c0 -14 0 -14 -21 -86 -11 -38 -21 -77 -23 -88 -4 -19
-39 -140 -69 -235 -7 -25 -15 -49 -17 -55 -4 -16 -7 -23 -48 -155 -22 -69 -52
-155 -66 -193 -14 -37 -25 -68 -25 -70 0 -1 -4 -15 -10 -30 -6 -16 -11 -33
-11 -38 0 -5 -4 -17 -9 -27 -5 -9 -16 -35 -24 -57 -48 -128 -102 -266 -118
-302 -11 -23 -19 -44 -19 -47 0 -9 -80 -198 -96 -228 -8 -16 -13 -28 -10 -28
3 0 -5 -20 -19 -44 -13 -24 -21 -46 -18 -50 4 -3 1 -6 -5 -6 -7 0 -11 -3 -10
-7 1 -5 -8 -30 -21 -58 -13 -27 -37 -79 -53 -115 -45 -98 -247 -502 -303 -605
-133 -247 -367 -642 -486 -820 -33 -49 -62 -98 -66 -107 -3 -10 -9 -18 -14
-18 -5 0 -9 -4 -9 -10 0 -5 -7 -18 -15 -27 -15 -19 -223 -315 -240 -342 -5 -9
-12 -18 -16 -21 -3 -3 -18 -23 -35 -45 -46 -64 -196 -259 -211 -275 -7 -8 -48
-58 -91 -110 -114 -140 -236 -283 -313 -365 -21 -22 -47 -52 -59 -68 -42 -54
-46 -53 -212 31 -193 98 -555 260 -700 312 -29 10 -91 33 -138 50 -47 17 -89
33 -95 34 -5 2 -17 6 -25 9 -23 9 -203 68 -220 72 -8 2 -52 15 -97 30 -45 14
-93 28 -107 31 -14 2 -38 9 -53 15 -16 6 -29 10 -30 10 -2 -1 -4 -1 -5 0 -2 0
-10 2 -18 4 -23 6 -51 13 -110 29 -30 8 -66 17 -80 20 -43 9 -71 15 -88 20 -9
3 -28 7 -42 10 -14 2 -45 9 -70 15 -25 5 -58 12 -75 15 -16 3 -41 8 -55 11
-14 3 -38 7 -55 10 -16 3 -43 8 -60 11 -16 3 -39 7 -50 9 -67 11 -84 14 -125
20 -25 4 -58 9 -75 11 -74 13 -198 27 -340 40 -38 3 -86 7 -105 9 -215 23
-706 23 -970 0 -84 -7 -257 -26 -285 -31 -10 -2 -37 -6 -60 -9 -48 -7 -81 -13
-115 -20 -14 -3 -38 -7 -55 -10 -30 -4 -58 -10 -105 -20 -14 -4 -36 -8 -50
-11 -14 -3 -43 -10 -65 -15 -22 -5 -51 -12 -65 -15 -14 -3 -48 -12 -76 -20
-28 -8 -61 -17 -73 -19 -13 -2 -31 -7 -41 -10 -10 -3 -27 -7 -37 -9 -10 -2
-58 -16 -108 -31 -49 -14 -101 -28 -114 -31 -13 -3 -34 -10 -45 -16 -12 -6
-21 -10 -21 -8 0 3 -110 -27 -135 -37 -8 -3 -19 -7 -25 -9 -18 -4 -259 -84
-275 -91 -8 -3 -19 -7 -25 -9 -19 -5 -210 -74 -230 -83 -11 -5 -81 -33 -155
-61 -163 -63 -345 -139 -426 -176 -32 -16 -61 -29 -64 -29 -9 -3 -55 -23 -122
-54 -38 -17 -96 -44 -130 -60 -143 -66 -662 -329 -693 -351 -5 -4 -50 -29
-100 -55 -49 -26 -96 -52 -103 -58 -19 -15 -93 -56 -124 -70 -16 -6 -28 -15
-28 -19 0 -4 -4 -8 -9 -8 -12 0 -115 -63 -119 -72 -2 -5 -8 -8 -14 -8 -25 0
-546 -336 -833 -539 -277 -194 -678 -501 -840 -642 -11 -9 -72 -61 -135 -115
-383 -326 -728 -662 -1086 -1059 -211 -233 -609 -632 -907 -910 -196 -182
-554 -502 -615 -550 -7 -5 -23 -19 -35 -31 -32 -31 -329 -281 -492 -414 -77
-63 -142 -117 -145 -120 -3 -3 -142 -115 -310 -249 -168 -134 -318 -254 -335
-267 -28 -23 -752 -585 -805 -625 -50 -38 -226 -174 -290 -223 -36 -28 -121
-93 -190 -146 -280 -215 -366 -281 -380 -293 -8 -6 -76 -59 -150 -116 -74 -58
-218 -170 -320 -250 -102 -80 -192 -151 -200 -158 -24 -19 -553 -446 -575
-464 -11 -9 -81 -68 -155 -130 -183 -152 -482 -411 -520 -449 -3 -3 -43 -39
-90 -80 -47 -41 -102 -91 -124 -110 -21 -19 -50 -46 -65 -59 -95 -85 -360
-334 -700 -656 -125 -119 -1201 -1195 -1386 -1387 -88 -91 -257 -265 -375
-387 -118 -121 -280 -288 -360 -371 -855 -882 -1601 -1624 -2100 -2090 -74
-69 -144 -134 -155 -145 -24 -23 -336 -298 -374 -329 -14 -12 -43 -37 -65 -57
-23 -19 -144 -123 -271 -230 -126 -107 -241 -204 -255 -216 -14 -11 -119 -100
-235 -198 -115 -97 -232 -196 -260 -220 -27 -24 -149 -128 -270 -231 -121
-104 -225 -193 -231 -199 -6 -5 -30 -26 -54 -45 -24 -19 -51 -42 -59 -51 -13
-13 -154 -137 -322 -284 -46 -40 -222 -198 -335 -300 -314 -286 -399 -364
-709 -662 -367 -351 -747 -736 -1018 -1033 -88 -96 -176 -193 -197 -215 -229
-248 -649 -770 -862 -1070 -144 -203 -408 -610 -408 -629 0 -3 -20 -38 -44
-78 -117 -199 -336 -681 -361 -798 -1 -3 -16 -50 -33 -105 -31 -97 -76 -283
-88 -361 -3 -22 -7 -50 -10 -64 -11 -63 -18 -187 -18 -320 0 -162 5 -225 31
-360 16 -87 45 -193 59 -222 8 -15 14 -30 14 -33 -3 -15 47 -130 91 -213 201
-379 531 -686 954 -887 66 -31 128 -61 137 -66 29 -15 292 -107 328 -114 8 -2
27 -8 43 -14 15 -6 40 -13 55 -16 67 -14 76 -16 82 -20 4 -2 21 -7 39 -10 18
-3 70 -14 114 -24 45 -11 104 -22 131 -26 27 -3 52 -8 55 -9 3 -2 29 -6 56
-10 28 -3 59 -8 71 -10 25 -5 124 -16 289 -31 262 -25 842 -25 1160 0 176 13
342 28 436 40 53 7 110 14 164 21 114 14 196 25 220 30 11 3 39 7 61 10 23 2
53 7 65 10 13 2 40 7 59 10 19 2 46 7 60 10 14 3 39 7 55 9 17 3 41 7 55 10
14 3 51 10 82 15 76 14 98 19 128 25 14 3 38 8 54 10 15 2 36 7 46 10 18 6 39
10 90 20 23 4 186 41 220 49 8 2 47 12 85 21 80 19 75 18 175 43 60 16 226 61
322 87 10 3 26 7 35 10 156 41 202 54 226 64 15 6 27 8 27 6 0 -2 12 0 28 6
15 6 34 12 42 14 8 2 47 13 85 25 39 12 81 23 94 26 13 3 31 9 40 13 9 5 18 9
21 9 6 0 90 21 110 28 8 3 15 4 15 3 0 -1 16 5 35 13 19 8 38 15 43 16 4 0 33
8 65 18 31 10 62 18 68 20 6 1 78 23 160 50 82 26 154 48 159 50 12 2 171 53
455 147 118 39 217 72 220 72 10 2 86 27 105 35 11 5 76 27 145 50 69 22 132
44 140 47 8 3 20 7 25 8 6 2 57 19 115 39 58 20 146 50 195 67 50 16 99 33
110 38 11 5 49 19 85 31 36 12 97 33 135 47 82 29 100 35 100 32 0 -1 18 6 40
16 22 9 67 25 100 37 33 11 83 28 110 38 28 11 82 30 120 44 136 48 300 107
315 113 8 3 21 7 27 9 7 1 46 14 85 29 40 15 96 35 123 45 28 10 66 24 85 32
19 7 37 13 40 14 3 0 12 3 20 6 42 16 56 21 65 24 13 3 231 81 275 99 19 8 76
28 125 45 50 17 99 35 110 40 11 5 40 16 65 24 25 8 95 33 155 55 61 21 151
53 200 71 224 79 374 133 420 150 28 10 104 37 170 60 66 23 127 44 135 47 8
3 20 7 25 9 24 7 252 86 270 94 11 5 76 27 145 50 69 23 132 44 140 47 8 3 20
7 25 9 6 1 129 43 275 92 292 98 655 217 655 214 0 -1 59 19 130 44 72 25 137
47 145 48 9 2 76 25 150 51 74 26 158 54 185 62 28 8 55 18 60 21 6 4 17 8 26
9 9 1 37 12 63 23 26 11 51 20 56 20 5 0 19 4 32 9 13 5 25 8 28 8 3 0 15 5
28 12 13 7 31 14 40 16 22 4 407 142 532 190 19 8 46 17 59 21 13 3 40 13 60
22 20 9 41 17 46 18 10 2 231 84 275 102 33 14 63 24 75 27 10 3 103 38 140
54 44 18 190 73 190 71 0 -1 32 12 70 28 88 36 107 44 120 48 10 2 300 117
345 137 14 6 27 11 30 11 6 1 63 24 115 46 54 23 78 32 90 36 6 1 75 29 155
62 80 33 219 90 310 127 91 37 170 70 175 73 6 4 15 7 20 8 6 1 33 12 60 25
28 12 55 23 60 25 6 1 33 12 60 25 28 12 52 23 55 24 13 4 67 26 85 35 20 9
95 42 105 45 22 8 167 68 205 85 22 10 121 53 220 96 99 42 186 81 193 86 6 6
12 8 12 5 0 -5 62 21 175 73 11 5 43 19 70 31 93 40 110 47 188 83 44 20 81
36 83 36 2 0 33 13 68 30 36 16 91 40 123 54 32 13 87 38 123 54 36 16 98 44
139 62 87 38 206 92 278 127 29 14 53 24 55 23 2 -1 26 10 53 23 28 14 53 26
57 27 4 1 49 21 100 44 51 24 116 54 143 66 28 12 84 38 125 57 41 19 91 42
110 50 19 9 71 33 115 53 44 21 103 48 130 60 28 12 77 35 110 50 98 46 196
91 260 120 33 15 92 42 130 59 39 18 77 36 85 42 8 5 22 12 30 15 16 6 35 15
185 84 50 23 119 56 155 72 91 42 180 83 290 135 139 66 225 106 310 146 41
19 104 48 141 65 36 17 76 36 90 41 13 6 31 15 39 20 8 5 40 21 70 34 30 14
100 46 155 72 312 147 401 188 508 239 64 30 118 54 120 54 1 -1 20 8 42 20
39 21 232 113 365 174 86 40 175 81 285 133 142 67 397 187 500 235 39 18 95
44 125 58 30 15 57 27 60 27 3 1 50 23 105 50 55 27 102 49 105 49 3 1 25 11
50 23 157 75 226 107 230 107 5 1 36 16 175 82 44 21 82 38 85 38 3 1 23 10
45 20 37 17 94 44 235 109 30 14 80 36 110 50 208 94 295 134 368 168 46 21
85 39 87 39 2 0 36 15 77 34 100 46 207 95 308 142 107 49 731 361 825 412
177 97 208 114 360 200 98 55 392 231 500 300 44 28 108 68 143 89 34 20 62
41 62 45 0 4 6 8 13 8 7 0 22 8 33 18 10 10 22 19 26 20 5 1 25 14 45 28 147
100 294 202 314 216 572 417 933 721 1349 1139 397 398 696 757 995 1194 87
128 205 314 205 325 0 5 6 15 14 23 42 42 308 548 405 770 55 127 152 366 155
382 1 6 4 15 7 20 5 8 30 76 34 95 1 3 5 12 8 20 9 20 78 231 82 250 2 8 8 27
14 43 6 15 8 27 5 27 -4 0 -1 7 6 15 7 8 9 15 6 15 -4 0 -2 8 3 18 6 11 12 30
14 43 3 13 12 49 21 79 9 30 16 56 16 58 0 1 0 3 1 5 1 3 7 28 12 52 3 11 12
50 21 86 8 37 17 78 20 90 3 13 8 35 11 49 3 14 7 36 10 50 3 14 7 36 10 50 3
14 7 39 10 55 3 17 7 41 10 55 3 14 7 39 10 55 3 17 7 40 9 51 6 30 16 93 22
133 2 19 6 46 9 60 2 14 7 50 10 80 4 30 8 62 10 72 2 10 7 49 10 86 4 37 9
75 10 83 2 8 6 49 10 90 4 41 9 89 11 105 1 17 5 68 9 115 4 47 8 105 10 130
15 160 20 391 20 868 l0 543 25 6 c14 3 30 8 35 12 6 3 12 6 15 6 7 1 242 75
260 82 8 3 20 7 25 8 10 3 185 56 260 80 22 7 56 16 75 20 19 4 41 12 48 17 6
6 12 8 12 5 0 -3 21 2 48 10 26 8 54 16 62 18 8 1 58 15 110 29 52 15 103 29
113 32 21 5 21 5 172 44 66 17 131 33 145 36 26 5 91 21 125 30 11 3 31 7 45
10 14 3 33 7 42 10 18 5 47 12 88 20 14 3 33 7 42 10 10 3 28 7 40 10 13 2 34
6 48 9 14 3 45 10 70 15 25 5 56 12 70 15 14 3 34 7 45 9 11 2 45 8 75 15 30
6 66 13 80 16 14 3 36 7 50 10 40 8 72 14 110 20 20 3 47 8 60 11 14 3 36 7
50 9 26 4 61 10 120 20 45 9 65 12 120 19 25 4 59 9 75 12 50 8 78 13 125 19
25 3 59 8 75 11 17 3 44 7 60 9 59 7 131 16 166 21 20 2 59 7 85 10 27 3 63 7
79 8 17 2 59 7 95 10 36 4 82 9 102 11 21 3 72 7 113 10 42 3 92 8 113 10 36
3 188 14 302 20 124 8 524 19 655 19 138 0 543 -12 640 -19 298 -21 286 -20
396 -30 43 -3 79 -2 83 3 3 5 7 37 10 73 3 35 8 80 10 99 3 19 7 62 10 95 3
33 8 76 11 95 2 19 7 67 11 105 3 39 8 81 9 95 2 14 6 57 9 95 4 39 9 84 10
100 2 17 7 59 10 95 4 36 9 81 11 100 2 19 7 64 11 100 3 36 8 79 9 95 2 17 6
59 9 95 4 36 8 74 10 86 7 35 -6 42 -84 49 -41 4 -93 8 -115 10 -40 4 -164 13
-260 20 -380 27 -1192 27 -1630 0 -142 -9 -315 -21 -402 -30 -29 -3 -79 -7
-110 -10 -103 -9 -262 -26 -283 -30 -8 -2 -44 -6 -80 -10 -36 -3 -78 -9 -95
-11 -16 -3 -48 -7 -69 -9 -37 -4 -90 -11 -146 -20 -14 -2 -45 -7 -70 -10 -25
-3 -57 -8 -71 -10 -34 -6 -97 -15 -134 -20 -30 -3 -30 -3 5 12 43 19 83 36 90
38 17 6 49 18 70 27 14 6 30 12 35 14 6 1 28 10 50 19 65 28 89 38 100 41 10
2 172 67 213 84 12 6 33 15 47 20 14 6 36 15 50 20 14 6 35 14 48 19 12 5 58
23 102 41 120 48 146 58 165 65 3 1 18 7 33 13 53 22 254 102 267 107 3 1 16
6 30 12 14 6 61 25 105 42 44 17 89 35 100 40 11 5 40 17 65 27 25 9 64 26 87
36 23 10 45 18 48 18 4 0 23 7 43 16 21 9 47 20 60 25 12 5 33 14 47 19 14 6
35 14 48 19 12 5 36 14 52 21 17 8 35 15 40 16 13 4 133 52 165 66 14 6 27 12
30 12 8 2 121 47 170 69 24 11 49 20 55 21 5 2 27 10 49 19 21 9 41 17 43 17
3 0 19 6 36 14 18 8 88 37 157 64 150 59 164 65 170 67 3 1 16 6 30 12 14 6
61 25 105 42 44 17 89 36 100 40 11 5 47 20 80 33 114 44 109 27 55 158 -25
63 -50 124 -55 135 -4 11 -9 25 -11 30 -2 9 -144 364 -164 413 -18 42 -29 67
-54 132 -13 36 -33 83 -42 105 -10 22 -18 42 -19 45 0 5 -117 302 -121 308 -1
3 -98 -33 -159 -59 -16 -7 -32 -13 -35 -14 -3 -1 -13 -5 -22 -8 -29 -11 -53
-18 -53 -16 0 1 -18 -8 -40 -20 -22 -11 -43 -21 -47 -21 -4 0 -19 -5 -35 -12
-15 -6 -30 -12 -33 -13 -3 -1 -16 -6 -30 -12 -14 -6 -50 -21 -80 -33 -30 -11
-64 -25 -75 -30 -11 -5 -65 -27 -120 -49 -129 -50 -801 -319 -840 -336 -16 -7
-61 -25 -100 -40 -38 -15 -83 -33 -100 -40 -16 -7 -68 -27 -115 -45 -47 -18
-89 -37 -95 -42 -5 -4 -15 -8 -22 -8 -7 0 -32 -9 -56 -19 -23 -11 -670 -270
-1437 -576 -767 -306 -1420 -567 -1450 -580 -30 -13 -93 -38 -140 -56 -47 -17
-89 -36 -95 -41 -5 -4 -15 -8 -22 -8 -7 0 -32 -9 -56 -19 -23 -11 -103 -43
-177 -73 -74 -29 -138 -54 -141 -56 -6 -3 -14 21 -49 144 -25 89 -25 97 3 109
20 10 230 118 582 300 77 40 214 111 305 157 191 99 374 193 655 339 110 56
268 138 350 180 83 43 188 97 235 121 47 24 150 77 230 118 80 41 147 77 150
80 3 3 75 40 160 83 172 87 392 200 695 356 110 57 265 138 345 179 189 97
438 226 620 320 222 114 427 220 625 322 99 51 183 96 188 99 7 7 -35 92 -178
366 -34 66 -113 219 -175 340 -131 254 -250 481 -267 510 -11 20 -13 19 -75
-13 -76 -40 -304 -158 -517 -267 -171 -88 -527 -272 -716 -370 -66 -34 -201
-104 -300 -155 -99 -51 -235 -121 -302 -156 -68 -35 -123 -62 -123 -60 0 2
129 93 286 202 157 109 313 219 348 244 35 25 131 92 215 150 83 58 222 155
309 215 86 61 202 142 257 180 55 37 102 71 105 75 3 4 12 9 20 13 8 4 42 26
75 50 33 23 128 89 210 147 83 57 152 107 155 110 9 9 100 70 106 70 3 0 16
10 30 23 l25 23 -257 370 c-141 203 -261 371 -266 372 -4 2 -8 8 -8 13 0 5
-36 59 -79 121 -44 62 -95 135 -113 161 -18 27 -42 60 -53 73 l-20 24 -60 -42
c-33 -23 -61 -45 -63 -50 -2 -4 -8 -8 -13 -8 -4 0 -81 -51 -169 -112 -88 -62
-257 -180 -375 -263 -119 -82 -293 -204 -388 -270 -209 -147 -537 -375 -917
-640 -157 -110 -286 -203 -288 -207 -2 -4 -7 -8 -12 -8 -10 0 -388 -262 -411
-284 -9 -9 -18 -16 -22 -16 -6 0 -306 -208 -338 -234 -8 -7 -30 -21 -47 -32
-18 -10 -32 -22 -32 -26 0 -4 -4 -8 -10 -8 -5 0 -62 -37 -127 -83 -65 -46
-156 -109 -203 -142 -47 -32 -89 -63 -95 -67 -5 -5 -102 -72 -215 -150 -113
-78 -207 -144 -210 -147 -3 -3 -13 -10 -22 -16 -43 -25 -403 -279 -406 -287
-2 -4 -7 -8 -12 -8 -5 0 -111 -72 -237 -160 l-228 -159 -18 22 c-100 119 -377
397 -489 490 -21 17 -38 35 -38 39 0 9 10 21 120 147 41 47 93 109 115 136 22
28 45 55 51 60 20 17 255 314 360 455 206 277 399 556 545 789 9 14 42 67 73
116 31 50 62 101 69 115 6 14 18 32 25 40 7 8 12 19 11 24 0 5 3 12 9 15 5 3
22 29 38 58 16 28 69 122 118 210 49 87 98 174 109 193 37 64 312 613 356 710
24 52 51 111 60 130 9 19 16 37 16 40 1 3 10 23 22 45 11 22 21 42 21 45 -1 3
8 25 20 50 11 25 43 101 72 170 28 69 55 135 61 148 5 12 13 32 18 45 5 12 16
38 24 57 8 19 26 67 40 105 14 39 36 95 47 125 52 131 264 772 275 829 2 9 4
16 5 16 1 0 3 7 5 15 2 8 18 67 35 130 17 63 33 126 35 140 3 14 12 48 19 75
15 55 13 62 -24 69 -14 2 -81 16 -150 31 -69 15 -134 29 -145 31 -11 2 -31 6
-45 9 -14 4 -36 8 -50 11 -14 3 -63 14 -110 24 -47 10 -96 21 -110 24 -14 3
-36 7 -50 10 -14 3 -36 8 -50 11 -14 3 -35 8 -47 10 -13 3 -33 7 -45 10 -13 2
-34 7 -48 10 -54 11 -71 15 -92 20 -13 3 -34 7 -48 10 -25 5 -51 10 -92 20
-25 6 -109 24 -148 31 -14 3 -40 9 -57 14 -20 5 -33 5 -33 -1z"/>
</g>
</svg>
